<svg width="33" height="32" viewBox="0 0 33 32" fill="none" xmlns="http://www.w3.org/2000/svg">
<g id="github-svgrepo-com (1) 1">
<g id="Group 1">
<path id="Vector" d="M7.20486 5.00956C7.27652 3.74536 7.57937 3.19561 8.44784 2.75415C9.3823 2.279 10.8561 2.50012 12.5904 3.37582C13.3374 3.75319 13.4134 3.76087 14.7225 3.59351C16.4626 3.37096 18.7027 3.37175 20.3088 3.59554C21.5233 3.76478 21.603 3.75633 22.3518 3.37818C24.8135 2.13514 26.757 2.21647 27.4608 3.59193C27.812 4.2785 27.8773 6.05999 27.6049 7.52933C27.4539 8.34392 27.4699 8.44562 27.8337 8.98017C30.3933 12.7414 28.549 18.8382 24.1629 21.1135C23.8273 21.2876 23.5445 21.3954 23.3139 21.4831C22.6061 21.7526 22.3912 21.8345 22.6514 23.075C22.7767 23.6717 22.9276 25.1552 22.9869 26.3719C23.0941 28.5712 23.0925 28.5866 22.7057 29.0352C22.1792 29.6456 21.4203 29.6559 20.9061 29.0597C20.5707 28.6709 20.5379 28.4873 20.5379 26.9872C20.5379 24.7704 20.2942 23.2969 19.7185 22.0343C19.0338 20.5317 19.5414 19.9715 21.1072 19.6357C23.2835 19.1688 24.9834 17.8295 25.9308 15.8351C26.8316 13.9392 26.9674 11.3192 25.3388 9.72582C24.8757 9.177 24.8434 8.67991 25.1741 7.18096C25.2977 6.62072 25.4013 5.89795 25.4044 5.57465C25.4091 5.06408 25.3624 4.98699 25.048 4.98699C24.849 4.98699 24.0886 5.27565 23.3585 5.62841L22.1932 6.1916C22.0872 6.24279 21.9687 6.26248 21.8518 6.2491C18.8887 5.90996 16.0732 5.90472 13.0956 6.25043C12.9782 6.26405 12.8592 6.24436 12.7529 6.19292L11.5882 5.62935C10.858 5.27596 10.0977 4.98699 9.89873 4.98699C9.43872 4.98699 9.4318 5.32564 9.8511 7.33767C10.1072 8.56647 10.2796 8.84028 9.53915 9.82282C8.42929 11.2956 8.15206 13.1244 8.74722 15.0459C9.49734 17.4674 11.3342 19.1032 13.9167 19.6489C15.4734 19.978 15.8803 20.4073 15.2859 22.1873C14.8179 23.5881 14.522 23.9492 13.842 23.9492C12.927 23.9492 12.3539 23.1588 12.6693 22.3318C12.8082 21.9673 12.7669 21.9284 11.9097 21.6166C9.29319 20.6654 7.29192 18.5332 6.37694 15.7218C5.66973 13.549 5.9809 10.7208 7.11544 9.01136C7.50173 8.42933 7.50771 8.37996 7.32744 7.26574C7.22545 6.63498 7.17028 5.61979 7.20486 5.00956Z" fill="#FFFDF3"/>
<path id="Vector_2" d="M6.37099 21.0345C5.97454 20.4831 5.17108 20.334 4.5764 20.7017C3.98173 21.0693 3.82103 21.8143 4.21748 22.3657C4.51016 22.7729 4.86031 23.1073 5.15766 23.3829C5.21247 23.4338 5.26574 23.4829 5.31775 23.5308C5.56682 23.7602 5.78674 23.9628 6.00762 24.2033C6.49616 24.735 6.98353 25.4511 7.26052 26.7354C7.3839 27.3074 7.82732 27.6155 8.07302 27.7502C8.33948 27.8961 8.63061 27.9821 8.87019 28.0382C9.36028 28.1528 9.95521 28.2123 10.5198 28.247C11.1397 28.2851 11.8113 28.2975 12.4118 28.3009C12.4122 28.9631 12.9915 29.5 13.7059 29.5C14.4206 29.5 15 28.9628 15 28.3V27.1C15 26.4373 14.4206 25.9 13.7059 25.9C13.5839 25.9 13.4519 25.9004 13.3121 25.9009C12.5527 25.903 11.5627 25.9058 10.6909 25.8523C10.2705 25.8265 9.92488 25.7899 9.67144 25.7451C9.28117 24.3245 8.65067 23.3792 7.97788 22.6469C7.68047 22.3232 7.3725 22.04 7.122 21.8096C7.0751 21.7666 7.03022 21.7253 6.98779 21.6859C6.69875 21.418 6.50968 21.2274 6.37099 21.0345Z" fill="#FFFDF3"/>
</g>
</g>
</svg>
