<svg width="33" height="33" viewBox="0 0 33 33" fill="none" xmlns="http://www.w3.org/2000/svg">
<g id="linkedin-svgrepo-com (1) 1">
<path id="Vector" fill-rule="evenodd" clip-rule="evenodd" d="M8.50033 3.16666C5.55481 3.16666 3.16699 5.55447 3.16699 8.49999V24.5C3.16699 27.4455 5.55481 29.8333 8.50033 29.8333H24.5003C27.4458 29.8333 29.8337 27.4455 29.8337 24.5V8.49999C29.8337 5.55447 27.4458 3.16666 24.5003 3.16666H8.50033ZM5.83366 8.49999C5.83366 7.02723 7.02757 5.83332 8.50033 5.83332H24.5003C25.9731 5.83332 27.167 7.02723 27.167 8.49999V24.5C27.167 25.9728 25.9731 27.1667 24.5003 27.1667H8.50033C7.02757 27.1667 5.83366 25.9728 5.83366 24.5V8.49999ZM12.5003 15.1667C12.5003 14.4303 11.9034 13.8333 11.167 13.8333C10.4306 13.8333 9.83366 14.4303 9.83366 15.1667V23.1667C9.83366 23.9031 10.4306 24.5 11.167 24.5C11.9034 24.5 12.5003 23.9031 12.5003 23.1667V15.1667ZM13.167 10.5C13.167 11.6046 12.2716 12.5 11.167 12.5C10.0624 12.5 9.16699 11.6046 9.16699 10.5C9.16699 9.39542 10.0624 8.49999 11.167 8.49999C12.2716 8.49999 13.167 9.39542 13.167 10.5ZM16.5003 13.8333C16.953 13.8333 17.353 14.0589 17.5941 14.4039C18.2775 14.0336 19.0385 13.8333 19.8337 13.8333C22.7129 13.8333 24.5003 16.4011 24.5003 18.5952V18.6053V18.6153V18.6255V18.6356V18.6457V18.656V18.6661V18.6764V18.6867V18.6969V18.7073V18.7176V18.728V18.7384V18.7488V18.7592V18.7696V18.7801V18.7907V18.8011V18.8117V18.8223V18.8328V18.8435V18.854V18.8647V18.8753V18.8861V18.8968V18.9076V18.9183V18.9291V18.9399V18.9507V18.9616V18.9724V18.9833V18.9941V19.0051V19.016V19.0271V19.038V19.0489V19.06V19.0711V19.082V19.0931V19.1043V19.1153V19.1264V19.1376V19.1488V19.1599V19.1711V19.1823V19.1935V19.2048V19.216V19.2273V19.2385V19.2499V19.2612V19.2725V19.2839V19.2952V19.3065V19.318V19.3293V19.3408V19.3523V19.3637V19.3751V19.3867V19.3981V19.4096V19.4211V19.4327V19.4441V19.4557V19.4672V19.4788V19.4904V19.502V19.5136V19.5252V19.5368V19.5485V19.5601V19.5719V19.5835V19.5952V19.6068V19.6185V19.6303V19.642V19.6537V19.6655V19.6772V19.6889V19.7007V19.7124V19.7243V19.736V19.7479V19.7596V19.7715V19.7832V19.7951V19.8069V19.8188V19.8305V19.8424V19.8543V19.8661V19.878V19.8899V19.9017V19.9136V19.9256V19.9375V19.9493V19.9612V19.9732V19.9851V19.9969V20.0089V20.0208V20.0328V20.0447V20.0565V20.0685V20.0805V20.0924V20.1044V20.1163V20.1283V20.1403V20.1521V20.1641V20.176V20.188V20.2V20.2119V20.2239V20.2359V20.2477V20.2597V20.2717V20.2837V20.2956V20.3076V20.3196V20.3315V20.3435V20.3555V20.3673V20.3793V20.3912V20.4032V20.4151V20.4271V20.4391V20.4509V20.4629V20.4748V20.4867V20.4987V20.5105V20.5225V20.5344V20.5463V20.5581V20.5701V20.582V20.5939V20.6057V20.6176V20.6295V20.6413V20.6532V20.6651V20.6769V20.6888V20.7005V20.7124V20.7243V20.736V20.7479V20.7596V20.7715V20.7832V20.7951V20.8068V20.8185V20.8303V20.842V20.8537V20.8655V20.8772V20.8889V20.9007V20.9123V20.924V20.9356V20.9473V20.9589V20.9705V20.9821V20.9937V21.0053V21.0169V21.0285V21.0401V21.0517V21.0632V21.0748V21.0863V21.0977V21.1093V21.1208V21.1323V21.1436V21.1551V21.1665V21.178V21.1893V21.2007V21.2121V21.2235V21.2348V21.2461V21.2575V21.2687V21.28V21.2912V21.3025V21.3137V21.3249V21.3361V21.3473V21.3585V21.3696V21.3808V21.3919V21.4029V21.414V21.4251V21.4361V21.4472V21.4581V21.4692V21.4801V21.4911V21.502V21.5129V21.5239V21.5347V21.5456V21.5564V21.5672V21.578V21.5888V21.5995V21.6103V21.6209V21.6316V21.6423V21.6529V21.6636V21.6741V21.6847V21.6953V21.7059V21.7163V21.7268V21.7373V21.7477V21.7581V21.7685V21.7789V21.7892V21.7996V21.8099V21.8201V21.8304V21.8407V21.8508V21.8611V21.8712V21.8813V21.8913V21.9015V21.9115V21.9215V21.9315V21.9415V21.9515V21.9613V21.9712V21.9811V21.9909V22.0007V22.0105V22.0203V22.03V22.0396V22.0493V22.0589V22.0685V22.0781V22.0877V22.0972V22.1067V22.1161V22.1256V22.1349V22.1443V22.1536V22.1629V22.1723V22.1815V22.1907V22.1999V22.2091V22.2181V22.2272V22.2363V22.2453V22.2543V22.2632V22.2721V22.2811V22.29V22.2988V22.3076V22.3163V22.3251V22.3337V22.3424V22.3509V22.3596V22.3681V22.3767V22.3851V22.3936V22.402V22.4104V22.4187V22.4269V22.4352V22.4435V22.4517V22.4599V22.468V22.476V22.4841V22.4921V22.5V22.508V22.5159V22.5237V22.5316V22.5393V22.5471V22.5548V22.5624V22.57V22.5776V22.5852V22.5927V22.6001V22.6076V22.6149V22.6223V22.6296V22.6368V22.6441V22.6512V22.6584V22.6655V22.6725V22.6796V22.6865V22.6935V22.7004V22.7072V22.714V22.7208V22.7275V22.7341V22.7408V22.7473V22.7539V22.7604V22.7668V22.7732V22.7796V22.7859V22.7921V22.7984V22.8045V22.8107V22.8168V22.8228V22.8288V22.8348V22.8407V22.8465V22.8524V22.8581V22.8639V22.8695V22.8751V22.8807V22.8863V22.8917V22.8971V22.9025V22.9079V22.9131V22.9184V22.9236V22.9287V22.9337V22.9388V22.9437V22.9487V22.9536V22.9584V22.9632V22.968V22.9727V22.9773V22.9819V22.9864V22.9909V22.9953V22.9997V23.004V23.0083V23.0125V23.0167V23.0208V23.0248V23.0288V23.0328V23.0367V23.0405V23.0444V23.0481V23.0517V23.0553V23.0589V23.0625V23.066V23.0693V23.0727V23.076V23.0792V23.0824V23.0856V23.0887V23.0917V23.0947V23.0975V23.1004V23.1032V23.1059V23.1085V23.1112V23.1137V23.1163V23.1187V23.1211V23.1235V23.1257V23.1279V23.13V23.1321V23.1341V23.1361V23.138V23.1399V23.1417V23.1435V23.1451V23.1467V23.1483V23.1497V23.1512V23.1525V23.1551V23.1573V23.1595V23.1612V23.1628V23.1645V23.1661C24.5003 23.9025 23.9034 24.5 23.167 24.5C22.4306 24.5 21.8337 23.9031 21.8337 23.1667V23.1651V23.1635V23.162V23.1604V23.1584V23.1563V23.1539V23.1512V23.1497V23.1483V23.1467V23.1451V23.1435V23.1417V23.1399V23.138V23.1361V23.1341V23.1321V23.13V23.1279V23.1257V23.1235V23.1211V23.1187V23.1163V23.1137V23.1112V23.1085V23.1059V23.1032V23.1004V23.0975V23.0947V23.0917V23.0887V23.0856V23.0824V23.0792V23.076V23.0727V23.0693V23.066V23.0625V23.0589V23.0553V23.0517V23.0481V23.0444V23.0405V23.0367V23.0328V23.0288V23.0248V23.0208V23.0167V23.0125V23.0083V23.004V22.9997V22.9953V22.9909V22.9864V22.9819V22.9773V22.9727V22.968V22.9632V22.9584V22.9536V22.9487V22.9437V22.9388V22.9337V22.9287V22.9236V22.9184V22.9131V22.9079V22.9025V22.8971V22.8917V22.8863V22.8807V22.8751V22.8695V22.8639V22.8581V22.8524V22.8465V22.8407V22.8348V22.8288V22.8228V22.8168V22.8107V22.8045V22.7984V22.7921V22.7859V22.7796V22.7732V22.7668V22.7604V22.7539V22.7473V22.7408V22.7341V22.7275V22.7208V22.714V22.7072V22.7004V22.6935V22.6865V22.6796V22.6725V22.6655V22.6584V22.6512V22.6441V22.6368V22.6296V22.6223V22.6149V22.6076V22.6001V22.5927V22.5852V22.5776V22.57V22.5624V22.5548V22.5471V22.5393V22.5316V22.5237V22.5159V22.508V22.5V22.4921V22.4841V22.476V22.468V22.4599V22.4517V22.4435V22.4352V22.4269V22.4187V22.4104V22.402V22.3936V22.3851V22.3767V22.3681V22.3596V22.3509V22.3424V22.3337V22.3251V22.3163V22.3076V22.2988V22.29V22.2811V22.2721V22.2632V22.2543V22.2453V22.2363V22.2272V22.2181V22.2091V22.1999V22.1907V22.1815V22.1723V22.1629V22.1536V22.1443V22.1349V22.1256V22.1161V22.1067V22.0972V22.0877V22.0781V22.0685V22.0589V22.0493V22.0396V22.03V22.0203V22.0105V22.0007V21.9909V21.9811V21.9712V21.9613V21.9515V21.9415V21.9315V21.9215V21.9115V21.9015V21.8913V21.8813V21.8712V21.8611V21.8508V21.8407V21.8304V21.8201V21.8099V21.7996V21.7892V21.7789V21.7685V21.7581V21.7477V21.7373V21.7268V21.7163V21.7059V21.6953V21.6847V21.6741V21.6636V21.6529V21.6423V21.6316V21.6209V21.6103V21.5995V21.5888V21.578V21.5672V21.5564V21.5456V21.5347V21.5239V21.5129V21.502V21.4911V21.4801V21.4692V21.4581V21.4472V21.4361V21.4251V21.414V21.4029V21.3919V21.3808V21.3696V21.3585V21.3473V21.3361V21.3249V21.3137V21.3025V21.2912V21.28V21.2687V21.2575V21.2461V21.2348V21.2235V21.2121V21.2007V21.1893V21.178V21.1665V21.1551V21.1436V21.1323V21.1208V21.1093V21.0977V21.0863V21.0748V21.0632V21.0517V21.0401V21.0285V21.0169V21.0053V20.9937V20.9821V20.9705V20.9589V20.9473V20.9356V20.924V20.9123V20.9007V20.8889V20.8772V20.8655V20.8537V20.842V20.8303V20.8185V20.8068V20.7951V20.7832V20.7715V20.7596V20.7479V20.736V20.7243V20.7124V20.7005V20.6888V20.6769V20.6651V20.6532V20.6413V20.6295V20.6176V20.6057V20.5939V20.582V20.5701V20.5581V20.5463V20.5344V20.5225V20.5105V20.4987V20.4867V20.4748V20.4629V20.4509V20.4391V20.4271V20.4151V20.4032V20.3912V20.3793V20.3673V20.3555V20.3435V20.3315V20.3196V20.3076V20.2956V20.2837V20.2717V20.2597V20.2477V20.2359V20.2239V20.2119V20.2V20.188V20.176V20.1641V20.1521V20.1403V20.1283V20.1163V20.1044V20.0924V20.0805V20.0685V20.0565V20.0447V20.0328V20.0208V20.0089V19.9969V19.9851V19.9732V19.9612V19.9493V19.9375V19.9256V19.9136V19.9017V19.8899V19.878V19.8661V19.8543V19.8424V19.8305V19.8188V19.8069V19.7951V19.7832V19.7715V19.7596V19.7479V19.736V19.7243V19.7124V19.7007V19.6889V19.6772V19.6655V19.6537V19.642V19.6303V19.6185V19.6068V19.5952V19.5835V19.5719V19.5601V19.5485V19.5368V19.5252V19.5136V19.502V19.4904V19.4788V19.4672V19.4557V19.4441V19.4327V19.4211V19.4096V19.3981V19.3867V19.3751V19.3637V19.3523V19.3408V19.3293V19.318V19.3065V19.2952V19.2839V19.2725V19.2612V19.2499V19.2385V19.2273V19.216V19.2048V19.1935V19.1823V19.1711V19.1599V19.1488V19.1376V19.1264V19.1153V19.1043V19.0931V19.082V19.0711V19.06V19.0489V19.038V19.0271V19.016V19.0051V18.9941V18.9833V18.9724V18.9616V18.9507V18.9399V18.9291V18.9183V18.9076V18.8968V18.8861V18.8753V18.8647V18.854V18.8435V18.8328V18.8223V18.8117V18.8011V18.7907V18.7801V18.7696V18.7592V18.7488V18.7384V18.728V18.7176V18.7073V18.6969V18.6867V18.6764V18.6661V18.656V18.6457V18.6356V18.6255V18.6153V18.6053V18.5952C21.8337 17.5709 20.9545 16.5 19.8337 16.5C19.1349 16.5 18.3635 16.8799 17.8337 17.7841V17.7877V17.8015V17.8152V17.8289V17.8428V17.8565V17.8704V17.8843V17.8983V17.9121V17.926V17.94V17.954V17.968V17.982V17.996V18.0101V18.0243V18.0383V18.0524V18.0665V18.0807V18.0949V18.1091V18.1233V18.1376V18.1517V18.1661V18.1804V18.1947V18.2089V18.2233V18.2377V18.252V18.2664V18.2808V18.2952V18.3097V18.3241V18.3387V18.3531V18.3676V18.3821V18.3967V18.4112V18.4257V18.4403V18.4549V18.4695V18.4841V18.4987V18.5133V18.528V18.5427V18.5573V18.572V18.5867V18.6015V18.6161V18.6308V18.6456V18.6604V18.6751V18.6899V18.7047V18.7195V18.7343V18.7491V18.7639V18.7787V18.7936V18.8084V18.8232V18.8381V18.8529V18.8679V18.8828V18.8976V18.9125V18.9275V18.9424V18.9572V18.9721V18.9871V19.002V19.0171V19.032V19.0469V19.0619V19.0768V19.0917V19.1068V19.1217V19.1367V19.1517V19.1667V19.1817V19.1967V19.2117V19.2267V19.2416V19.2567V19.2717V19.2867V19.3017V19.3167V19.3317V19.3467V19.3617V19.3768V19.3917V19.4068V19.4217V19.4368V19.4519V19.4668V19.4819V19.4968V19.5119V19.5268V19.5419V19.5568V19.5719V19.5868V19.6019V19.6168V19.6319V19.6468V19.6619V19.6768V19.6917V19.7067V19.7217V19.7367V19.7516V19.7665V19.7815V19.7964V19.8113V19.8263V19.8412V19.8561V19.8711V19.886V19.9008V19.9157V19.9307V19.9455V19.9604V19.9752V19.9901V20.0049V20.0197V20.0345V20.0493V20.0643V20.0791V20.0937V20.1085V20.1233V20.1381V20.1528V20.1676V20.1823V20.1971V20.2117V20.2264V20.2411V20.2557V20.2704V20.2851V20.2997V20.3143V20.3289V20.3435V20.3581V20.3727V20.3872V20.4017V20.4163V20.4308V20.4452V20.4597V20.4741V20.4887V20.5031V20.5175V20.5319V20.5463V20.5607V20.5749V20.5893V20.6036V20.6179V20.6321V20.6464V20.6607V20.6749V20.6892V20.7033V20.7175V20.7316V20.7457V20.7599V20.774V20.7881V20.8021V20.8161V20.8301V20.8441V20.8581V20.8721V20.886V20.8999V20.9139V20.9277V20.9415V20.9553V20.9692V20.9829V20.9967V21.0104V21.0241V21.0377V21.0515V21.0651V21.0787V21.0923V21.1059V21.1193V21.1329V21.1464V21.1599V21.1732V21.1867V21.2V21.2133V21.2267V21.24V21.2533V21.2665V21.2797V21.2929V21.3061V21.3192V21.3324V21.3455V21.3585V21.3715V21.3845V21.3975V21.4104V21.4233V21.4361V21.4491V21.4619V21.4747V21.4873V21.5001V21.5128V21.5255V21.5381V21.5507V21.5632V21.5757V21.5883V21.6008V21.6132V21.6256V21.6379V21.6503V21.6625V21.6748V21.6871V21.6992V21.7115V21.7236V21.7356V21.7477V21.7597V21.7717V21.7836V21.7956V21.8075V21.8193V21.8311V21.8428V21.8545V21.8663V21.8779V21.8895V21.9011V21.9127V21.9241V21.9356V21.9471V21.9584V21.9697V21.9811V21.9924V22.0036V22.0148V22.0259V22.0369V22.048V22.0591V22.0701V22.0811V22.0919V22.1028V22.1136V22.1244V22.1351V22.1457V22.1564V22.1671V22.1776V22.1881V22.1985V22.2089V22.2193V22.2297V22.24V22.2503V22.2604V22.2707V22.2808V22.2908V22.3008V22.3108V22.3208V22.3307V22.3404V22.3503V22.36V22.3697V22.3793V22.3889V22.3985V22.408V22.4175V22.4268V22.4363V22.4455V22.4548V22.464V22.4732V22.4823V22.4913V22.5003V22.5093V22.5183V22.5271V22.5359V22.5447V22.5533V22.562V22.5705V22.5791V22.5876V22.5961V22.6044V22.6128V22.6211V22.6293V22.6375V22.6456V22.6537V22.6617V22.6696V22.6776V22.6855V22.6932V22.7009V22.7087V22.7163V22.7239V22.7313V22.7388V22.7463V22.7536V22.7608V22.7681V22.7752V22.7824V22.7895V22.7964V22.8033V22.8103V22.8171V22.8239V22.8305V22.8372V22.8437V22.8503V22.8568V22.8632V22.8696V22.8759V22.882V22.8883V22.8943V22.9004V22.9064V22.9123V22.9181V22.9239V22.9296V22.9353V22.9409V22.9464V22.952V22.9573V22.9627V22.968V22.9732V22.9784V22.9835V22.9885V22.9935V22.9984V23.0032V23.008V23.0127V23.0173V23.0219V23.0264V23.0308V23.0352V23.0395V23.0437V23.0479V23.052V23.056V23.06V23.0639V23.0677V23.0715V23.0751V23.0788V23.0823V23.0857V23.0892V23.0925V23.0957V23.0989V23.1021V23.1052V23.1081V23.1111V23.1139V23.1167V23.1193V23.122V23.1245V23.1271V23.1295V23.1317V23.134V23.1361V23.1383V23.1404V23.1423V23.1441V23.146V23.1477V23.1495V23.1511V23.1525V23.154V23.1553V23.1579V23.16V23.1619V23.1635V23.1652V23.1665C17.8337 23.9029 17.2367 24.5 16.5003 24.5C15.7639 24.5 15.167 23.9031 15.167 23.1667V23.1652V23.1635V23.1619V23.16V23.1579V23.1553V23.154V23.1525V23.1511V23.1495V23.1477V23.146V23.1441V23.1423V23.1404V23.1383V23.1361V23.134V23.1317V23.1295V23.1271V23.1245V23.122V23.1193V23.1167V23.1139V23.1111V23.1081V23.1052V23.1021V23.0989V23.0957V23.0925V23.0892V23.0857V23.0823V23.0788V23.0751V23.0715V23.0677V23.0639V23.06V23.056V23.052V23.0479V23.0437V23.0395V23.0352V23.0308V23.0264V23.0219V23.0173V23.0127V23.008V23.0032V22.9984V22.9935V22.9885V22.9835V22.9784V22.9732V22.968V22.9627V22.9573V22.952V22.9464V22.9409V22.9353V22.9296V22.9239V22.9181V22.9123V22.9064V22.9004V22.8943V22.8883V22.882V22.8759V22.8696V22.8632V22.8568V22.8503V22.8437V22.8372V22.8305V22.8239V22.8171V22.8103V22.8033V22.7964V22.7895V22.7824V22.7752V22.7681V22.7608V22.7536V22.7463V22.7388V22.7313V22.7239V22.7163V22.7087V22.7009V22.6932V22.6855V22.6776V22.6696V22.6617V22.6537V22.6456V22.6375V22.6293V22.6211V22.6128V22.6044V22.5961V22.5876V22.5791V22.5705V22.562V22.5533V22.5447V22.5359V22.5271V22.5183V22.5093V22.5003V22.4913V22.4823V22.4732V22.464V22.4548V22.4455V22.4363V22.4268V22.4175V22.408V22.3985V22.3889V22.3793V22.3697V22.36V22.3503V22.3404V22.3307V22.3208V22.3108V22.3008V22.2908V22.2808V22.2707V22.2604V22.2503V22.24V22.2297V22.2193V22.2089V22.1985V22.1881V22.1776V22.1671V22.1564V22.1457V22.1351V22.1244V22.1136V22.1028V22.0919V22.0811V22.0701V22.0591V22.048V22.0369V22.0259V22.0148V22.0036V21.9924V21.9811V21.9697V21.9584V21.9471V21.9356V21.9241V21.9127V21.9011V21.8895V21.8779V21.8663V21.8545V21.8428V21.8311V21.8193V21.8075V21.7956V21.7836V21.7717V21.7597V21.7477V21.7356V21.7236V21.7115V21.6992V21.6871V21.6748V21.6625V21.6503V21.6379V21.6256V21.6132V21.6008V21.5883V21.5757V21.5632V21.5507V21.5381V21.5255V21.5128V21.5001V21.4873V21.4747V21.4619V21.4491V21.4361V21.4233V21.4104V21.3975V21.3845V21.3715V21.3585V21.3455V21.3324V21.3192V21.3061V21.2929V21.2797V21.2665V21.2533V21.24V21.2267V21.2133V21.2V21.1867V21.1732V21.1599V21.1464V21.1329V21.1193V21.1059V21.0923V21.0787V21.0651V21.0515V21.0377V21.0241V21.0104V20.9967V20.9829V20.9692V20.9553V20.9415V20.9277V20.9139V20.8999V20.886V20.8721V20.8581V20.8441V20.8301V20.8161V20.8021V20.7881V20.774V20.7599V20.7457V20.7316V20.7175V20.7033V20.6892V20.6749V20.6607V20.6464V20.6321V20.6179V20.6036V20.5893V20.5749V20.5607V20.5463V20.5319V20.5175V20.5031V20.4887V20.4741V20.4597V20.4452V20.4308V20.4163V20.4017V20.3872V20.3727V20.3581V20.3435V20.3289V20.3143V20.2997V20.2851V20.2704V20.2557V20.2411V20.2264V20.2117V20.1971V20.1823V20.1676V20.1528V20.1381V20.1233V20.1085V20.0937V20.0791V20.0643V20.0493V20.0345V20.0197V20.0049V19.9901V19.9752V19.9604V19.9455V19.9307V19.9157V19.9008V19.886V19.8711V19.8561V19.8412V19.8263V19.8113V19.7964V19.7815V19.7665V19.7516V19.7367V19.7217V19.7067V19.6917V19.6768V19.6619V19.6468V19.6319V19.6168V19.6019V19.5868V19.5719V19.5568V19.5419V19.5268V19.5119V19.4968V19.4819V19.4668V19.4519V19.4368V19.4217V19.4068V19.3917V19.3768V19.3617V19.3467V19.3317V19.3167V19.3017V19.2867V19.2717V19.2567V19.2416V19.2267V19.2117V19.1967V19.1817V19.1667V19.1517V19.1367V19.1217V19.1068V19.0917V19.0768V19.0619V19.0469V19.032V19.0171V19.002V18.9871V18.9721V18.9572V18.9424V18.9275V18.9125V18.8976V18.8828V18.8679V18.8529V18.8381V18.8232V18.8084V18.7936V18.7787V18.7639V18.7491V18.7343V18.7195V18.7047V18.6899V18.6751V18.6604V18.6456V18.6308V18.6161V18.6015V18.5867V18.572V18.5573V18.5427V18.528V18.5133V18.4987V18.4841V18.4695V18.4549V18.4403V18.4257V18.4112V18.3967V18.3821V18.3676V18.3531V18.3387V18.3241V18.3097V18.2952V18.2808V18.2664V18.252V18.2377V18.2233V18.2089V18.1947V18.1804V18.1661V18.1517V18.1376V18.1233V18.1091V18.0949V18.0807V18.0665V18.0524V18.0383V18.0243V18.0101V17.996V17.982V17.968V17.954V17.94V17.926V17.9121V17.8983V17.8843V17.8704V17.8565V17.8428V17.8289V17.8152V17.8015V17.7877V17.774V17.7603V17.7465V17.7329V17.7193V17.7057V17.6921V17.6787V17.6651V17.6516V17.6381V17.6247V17.6113V17.5979V17.5845V17.5712V17.5579V17.5445V17.5313V17.5181V17.5049V17.4917V17.4785V17.4655V17.4524V17.4472V17.4419V17.4367V17.4313V17.4261V17.4208V17.4155V17.4101V17.4048V17.3995V17.3941V17.3888V17.3835V17.3781V17.3727V17.3673V17.3619V17.3564V17.3511V17.3456V17.3401V17.3347V17.3292V17.3237V17.3183V17.3128V17.3073V17.3017V17.2963V17.2907V17.2852V17.2796V17.274V17.2685V17.2629V17.2573V17.2517V17.2461V17.2405V17.2349V17.2293V17.2236V17.218V17.2124V17.2067V17.2011V17.1953V17.1897V17.184V17.1783V17.1727V17.1669V17.1612V17.1555V17.1497V17.144V17.1383V17.1325V17.1268V17.1209V17.1152V17.1095V17.1037V17.0979V17.0921V17.0863V17.0805V17.0747V17.0688V17.0631V17.0572V17.0513V17.0456V17.0397V17.0339V17.028V17.0221V17.0163V17.0104V17.0045V16.9987V16.9928V16.9869V16.9809V16.9751V16.9692V16.9633V16.9573V16.9515V16.9456V16.9396V16.9337V16.9277V16.9219V16.9159V16.91V16.904V16.8981V16.8921V16.8861V16.8803V16.8743V16.8683V16.8624V16.8564V16.8504V16.8444V16.8385V16.8325V16.8265V16.8205V16.8145V16.8085V16.8027V16.7967V16.7907V16.7847V16.7787V16.7727V16.7667V16.7607V16.7547V16.7487V16.7427V16.7367V16.7307V16.7247V16.7187V16.7127V16.7067V16.7007V16.6947V16.6887V16.6827V16.6767V16.6707V16.6647V16.6587V16.6527V16.6467V16.6407V16.6345V16.6285V16.6225V16.6165V16.6105V16.6045V16.5985V16.5925V16.5865V16.5805V16.5747V16.5687V16.5627V16.5567V16.5507V16.5447V16.5387V16.5327V16.5267V16.5207V16.5148V16.5088V16.5028V16.4968V16.4909V16.4849V16.4789V16.4729V16.4671V16.4611V16.4551V16.4492V16.4432V16.4373V16.4313V16.4255V16.4195V16.4136V16.4076V16.4017V16.3959V16.3899V16.384V16.3781V16.3721V16.3663V16.3604V16.3545V16.3487V16.3428V16.3369V16.3311V16.3252V16.3193V16.3135V16.3076V16.3017V16.296V16.2901V16.2843V16.2784V16.2727V16.2668V16.2611V16.2552V16.2495V16.2436V16.2379V16.2321V16.2264V16.2205V16.2148V16.2091V16.2033V16.1976V16.1919V16.1861V16.1804V16.1748V16.1691V16.1633V16.1577V16.152V16.1463V16.1407V16.1351V16.1293V16.1237V16.1181V16.1125V16.1069V16.1012V16.0956V16.0901V16.0845V16.0789V16.0733V16.0679V16.0623V16.0567V16.0512V16.0457V16.0401V16.0347V16.0292V16.0237V16.0183V16.0128V16.0073V16.0019V15.9964V15.9911V15.9856V15.9801V15.9748V15.9695V15.964V15.9587V15.9533V15.948V15.9427V15.9373V15.932V15.9267V15.9215V15.9161V15.9109V15.9056V15.9004V15.8952V15.8899V15.8847V15.8795V15.8744V15.8692V15.864V15.8588V15.8537V15.8485V15.8435V15.8384V15.8333V15.8283V15.8232V15.8181V15.8131V15.808V15.8031V15.798V15.7931V15.7881V15.7831V15.7781V15.7732V15.7683V15.7635V15.7585V15.7536V15.7488V15.7439V15.7391V15.7343V15.7295V15.7247V15.7199V15.7151V15.7104V15.7056V15.7009V15.6961V15.6915V15.6868V15.6821V15.6775V15.6729V15.6683V15.6637V15.6591V15.6545V15.65V15.6455V15.6409V15.6364V15.6319V15.6275V15.6229V15.6185V15.6141V15.6097V15.6053V15.6009V15.5965V15.5923V15.5879V15.5836V15.5793V15.5751V15.5708V15.5665V15.5623V15.5581V15.5539V15.5497V15.5456V15.5415V15.5373V15.5332V15.5292V15.5251V15.5211V15.5171V15.5131V15.5091V15.5051V15.5011V15.4972V15.4932V15.4893V15.4855V15.4816V15.4777V15.474V15.4701V15.4664V15.4625V15.4588V15.4551V15.4515V15.4477V15.4441V15.4404V15.4368V15.4332V15.4296V15.426V15.4225V15.4189V15.4155V15.412V15.4085V15.4051V15.4017V15.3983V15.3949V15.3916V15.3883V15.3849V15.3816V15.3784V15.3751V15.3719V15.3687V15.3655V15.3623V15.3592V15.356V15.3529V15.3499V15.3468V15.3439V15.3408V15.3379V15.3348V15.3319V15.3289V15.3261V15.3232V15.3204V15.3176V15.3148V15.312V15.3092V15.3065V15.3037V15.3011V15.2984V15.2959V15.2932V15.2907V15.288V15.2855V15.2831V15.2805V15.278V15.2756V15.2732V15.2708V15.2684V15.2661V15.2637V15.2615V15.2592V15.2569V15.2548V15.2525V15.2504V15.2483V15.2461V15.244V15.242V15.24V15.238V15.236V15.234V15.232V15.2301V15.2283V15.2264V15.2245V15.2228V15.2211V15.2192V15.2176V15.2159V15.2141V15.2125V15.2109V15.2093V15.2077V15.2063V15.2048V15.2033V15.2019V15.2004V15.1991V15.1976V15.1963V15.1937V15.1913V15.1889V15.1867V15.1845V15.1825V15.1807V15.1788V15.1772V15.1756V15.1736V15.1723V15.1707V15.1693V15.1677C15.167 14.4313 15.7639 13.8333 16.5003 13.8333Z" fill="#FFFDF3"/>
</g>
</svg>
